<svg id="svg" version="1.1" xmlns="http://www.w3.org/2000/svg" xmlns:xlink="http://www.w3.org/1999/xlink" width="400" height="400" viewBox="0, 0, 400,400"><g id="svgg"><path id="path0" d="M190.820 64.680 C 190.176 64.768,187.715 65.031,185.352 65.266 C 97.073 74.025,41.418 168.072,75.251 251.316 C 114.264 347.308,242.481 365.398,305.988 283.870 C 370.854 200.598,321.024 79.076,216.406 65.405 C 211.821 64.805,193.683 64.292,190.820 64.680 M214.844 78.315 C 276.574 86.136,321.875 137.673,321.875 200.078 L 321.875 204.688 308.977 204.688 L 296.079 204.688 296.282 203.809 C 296.677 202.097,299.564 178.251,299.934 173.633 C 300.516 166.388,301.003 167.420,289.033 150.543 C 286.579 147.082,284.010 143.445,283.325 142.460 C 281.349 139.621,283.402 140.282,245.508 130.288 C 235.195 127.568,220.667 123.684,213.222 121.656 C 197.525 117.380,198.395 117.460,191.914 119.686 C 189.164 120.631,177.935 124.476,166.960 128.232 C 143.178 136.369,146.732 134.573,139.606 142.053 L 133.709 148.242 119.661 154.414 C 103.317 161.593,103.301 161.602,102.356 163.780 C 101.344 166.110,99.087 178.954,99.114 182.227 C 99.134 184.684,102.489 201.012,103.544 203.787 L 103.887 204.688 90.947 204.688 L 78.006 204.688 78.241 197.168 C 80.529 123.989,143.425 69.265,214.844 78.315 M216.016 132.422 C 224.717 134.750,237.900 138.275,245.313 140.254 C 252.725 142.233,261.865 144.687,265.625 145.707 C 269.385 146.727,273.027 147.684,273.720 147.833 C 274.946 148.097,288.281 165.958,288.281 167.337 C 288.281 167.443,284.722 169.942,280.371 172.890 C 276.021 175.839,270.967 179.269,269.141 180.513 C 265.980 182.667,265.435 182.882,257.834 184.976 C 248.518 187.543,250.363 187.644,237.500 183.868 C 228.383 181.192,207.003 177.632,206.010 178.626 C 205.940 178.695,207.240 179.332,208.899 180.041 C 214.007 182.223,237.500 193.469,237.500 193.732 C 237.500 193.961,229.420 201.318,227.537 202.804 C 226.911 203.298,224.358 203.708,217.162 204.472 C 211.912 205.029,204.868 205.830,201.508 206.252 C 194.138 207.177,196.643 207.859,176.273 199.372 L 161.586 193.253 156.086 193.521 C 153.061 193.669,148.916 193.952,146.875 194.150 C 144.834 194.348,141.780 194.515,140.089 194.521 L 137.013 194.531 129.542 190.563 C 121.169 186.115,109.251 179.697,109.136 179.573 C 109.095 179.529,109.527 177.123,110.097 174.227 L 111.133 168.962 116.406 166.537 C 119.307 165.203,125.587 162.406,130.362 160.321 L 139.044 156.530 143.684 151.800 C 146.235 149.199,148.920 146.416,149.650 145.616 C 150.900 144.245,152.109 143.766,170.508 137.353 C 181.250 133.608,191.797 129.920,193.945 129.158 C 198.627 127.497,196.362 127.162,216.016 132.422 M289.557 183.105 C 287.480 198.399,285.072 214.624,284.757 215.453 C 284.272 216.727,282.576 217.511,267.578 223.392 C 255.106 228.284,252.913 229.191,238.784 235.307 C 234.012 237.372,230.057 239.063,229.995 239.063 C 229.933 239.063,230.498 232.867,231.250 225.293 L 232.617 211.523 237.032 207.475 C 239.460 205.248,241.499 203.490,241.563 203.569 C 241.626 203.647,241.894 206.523,242.159 209.961 C 242.640 216.225,243.243 220.168,243.656 219.755 C 243.941 219.471,245.787 215.187,247.479 210.883 C 248.209 209.027,249.263 205.249,249.823 202.488 C 251.048 196.436,249.334 197.681,261.105 194.295 C 272.115 191.128,272.258 191.059,284.021 183.178 C 286.592 181.456,288.870 180.155,289.084 180.287 C 289.298 180.419,289.447 180.382,289.417 180.205 C 289.317 179.633,289.446 179.297,289.764 179.297 C 289.935 179.297,289.842 181.011,289.557 183.105 M119.285 195.651 C 123.825 198.200,128.839 200.997,130.428 201.866 L 133.316 203.447 134.762 208.462 C 135.556 211.220,137.508 217.168,139.099 221.680 L 141.992 229.883 142.095 216.758 L 142.198 203.634 151.614 203.415 L 161.030 203.196 166.941 205.747 C 178.496 210.733,195.039 217.188,196.265 217.188 C 197.531 217.188,198.452 217.071,216.016 214.695 C 221.494 213.954,226.012 213.382,226.055 213.425 C 226.314 213.682,223.667 240.864,223.364 241.055 C 223.160 241.185,216.809 242.836,209.250 244.726 L 195.508 248.162 181.129 242.611 C 173.221 239.558,164.897 236.283,162.631 235.334 L 158.512 233.608 150.416 233.853 L 142.321 234.098 135.125 230.686 C 118.597 222.849,118.303 222.681,117.710 220.703 C 116.125 215.417,110.482 191.016,110.845 191.016 C 110.947 191.016,114.745 193.101,119.285 195.651 M159.354 204.329 C 159.343 204.849,159.247 206.328,159.142 207.617 C 159.036 208.906,158.896 210.620,158.830 211.426 C 158.765 212.231,158.834 212.891,158.983 212.891 C 159.301 212.891,159.874 203.884,159.575 203.586 C 159.465 203.476,159.366 203.810,159.354 204.329 M158.594 215.955 C 158.594 216.781,158.481 219.374,158.344 221.717 C 158.207 224.060,158.193 225.888,158.314 225.779 C 158.627 225.497,159.143 214.453,158.843 214.453 C 158.706 214.453,158.594 215.129,158.594 215.955 M194.922 219.076 C 194.922 219.971,195.090 220.703,195.295 220.703 C 195.500 220.703,195.584 220.056,195.483 219.264 C 195.224 217.243,194.922 217.141,194.922 219.076 M195.313 232.724 C 195.313 237.259,195.472 241.068,195.667 241.188 C 195.862 241.309,195.922 241.028,195.800 240.564 C 195.630 239.913,195.705 239.797,196.130 240.053 C 196.566 240.316,196.588 240.268,196.234 239.821 C 195.943 239.453,195.767 236.763,195.725 232.042 C 195.689 228.074,195.582 224.749,195.486 224.653 C 195.391 224.557,195.313 228.189,195.313 232.724 M158.033 226.604 C 157.726 227.493,157.594 233.205,157.881 233.204 C 158.120 233.203,158.528 226.580,158.312 226.214 C 158.262 226.129,158.137 226.305,158.033 226.604 M315.774 239.230 C 314.308 244.435,312.843 247.420,311.482 247.977 C 305.345 250.488,296.138 251.056,277.983 250.045 C 264.941 249.318,251.273 250.249,241.081 252.559 C 239.668 252.879,240.328 252.245,243.837 249.912 C 255.099 242.425,262.435 240.346,276.563 240.638 C 298.595 241.094,308.986 239.864,315.928 235.979 C 316.856 235.460,316.860 235.374,315.774 239.230 M195.830 245.013 L 195.799 247.852 196.078 245.508 C 196.232 244.219,196.246 242.941,196.109 242.669 C 195.972 242.397,195.846 243.452,195.830 245.013 M99.805 251.756 C 109.593 254.264,116.029 254.409,132.520 252.494 C 150.514 250.403,159.036 251.923,181.641 261.256 C 201.803 269.580,209.115 270.318,230.664 266.201 C 251.115 262.294,263.260 262.980,276.065 268.765 C 281.127 271.053,281.149 271.044,270.836 270.812 C 257.225 270.506,249.757 271.307,234.961 274.659 C 208.992 280.543,200.985 279.943,178.711 270.442 C 157.923 261.576,148.044 260.034,128.125 262.548 C 114.646 264.249,103.600 263.668,95.634 260.838 C 92.826 259.841,91.767 258.247,89.601 251.758 C 89.027 250.039,88.480 248.423,88.386 248.167 C 88.292 247.910,89.680 248.320,91.471 249.078 C 93.261 249.836,97.012 251.041,99.805 251.756 M157.337 276.118 C 162.757 277.283,166.531 278.646,175.586 282.710 C 195.740 291.756,208.433 294.062,227.734 292.185 C 229.990 291.966,234.033 291.605,236.719 291.384 C 239.404 291.162,241.821 290.906,242.090 290.815 C 243.245 290.424,242.400 291.077,240.058 292.387 C 227.644 299.329,208.907 302.705,196.289 300.272 C 186.368 298.359,180.901 296.353,165.234 288.877 C 149.567 281.401,142.365 279.267,130.681 278.638 C 126.083 278.391,126.035 278.379,127.556 277.843 C 135.626 275.003,148.639 274.250,157.337 276.118 " stroke="none" fill="#2a7193" fill-rule="evenodd"></path><path id="path1" d="M0.000 200.000 L 0.000 400.000 200.000 400.000 L 400.000 400.000 400.000 200.000 L 400.000 0.000 200.000 0.000 L 0.000 0.000 0.000 200.000 M206.836 64.458 C 315.772 71.312,372.890 194.366,307.740 281.844 C 247.969 362.099,124.430 350.780,79.550 260.938 C 35.913 173.582,95.342 70.104,192.383 64.475 C 199.967 64.035,200.096 64.034,206.836 64.458 M194.531 129.185 C 192.920 129.734,186.943 131.811,181.250 133.801 C 175.557 135.791,166.504 138.938,161.133 140.795 L 151.367 144.171 145.313 150.386 L 139.258 156.602 126.367 162.284 C 109.462 169.737,111.283 168.368,110.216 174.422 C 109.503 178.466,109.432 179.484,109.843 179.750 C 111.211 180.634,135.165 193.404,136.523 193.973 C 137.922 194.558,138.681 194.580,143.750 194.175 C 146.865 193.927,152.109 193.557,155.403 193.353 L 161.392 192.982 172.169 197.499 C 192.963 206.213,194.419 206.746,196.859 206.540 C 202.460 206.067,225.684 203.449,226.447 203.205 C 227.234 202.953,237.424 194.201,237.455 193.750 C 237.470 193.537,217.399 184.034,210.156 180.825 C 205.176 178.618,204.122 177.935,206.250 178.296 C 207.002 178.423,212.188 179.045,217.773 179.677 C 228.069 180.842,234.498 182.326,246.773 186.368 L 249.210 187.170 256.538 185.160 C 260.569 184.054,264.343 182.998,264.925 182.812 C 265.800 182.532,278.004 174.454,286.236 168.706 L 288.292 167.271 282.187 158.538 C 278.829 153.735,275.774 149.482,275.398 149.087 C 274.668 148.320,273.142 147.878,248.242 141.214 C 239.648 138.914,225.154 135.028,216.033 132.578 C 197.670 127.648,198.608 127.796,194.531 129.185 " stroke="none" fill="#f4f3e9" fill-rule="evenodd"></path><path id="path2" d="M197.426 77.678 C 197.564 77.901,196.247 78.024,194.102 77.988 C 192.149 77.956,190.475 78.051,190.383 78.200 C 190.291 78.349,189.353 78.412,188.298 78.340 C 186.932 78.247,186.320 78.365,186.172 78.749 C 186.013 79.164,185.726 79.197,184.927 78.893 C 184.194 78.615,183.731 78.630,183.350 78.946 C 183.046 79.199,182.299 79.292,181.640 79.160 C 180.911 79.014,180.469 79.087,180.469 79.352 C 180.469 79.596,180.051 79.699,179.492 79.592 C 178.955 79.489,178.516 79.577,178.516 79.786 C 178.516 79.995,177.988 80.089,177.344 79.995 C 176.544 79.877,176.172 79.987,176.172 80.341 C 176.172 80.959,175.541 81.028,175.184 80.450 C 175.008 80.165,174.778 80.167,174.429 80.457 C 174.153 80.686,173.641 80.763,173.292 80.629 C 172.864 80.465,172.656 80.595,172.656 81.027 C 172.656 81.547,172.509 81.589,171.875 81.250 C 171.304 80.944,171.094 80.953,171.094 81.282 C 171.094 81.539,170.760 81.644,170.313 81.527 C 169.883 81.415,169.531 81.503,169.531 81.723 C 169.531 81.943,169.188 82.033,168.769 81.923 C 168.349 81.813,167.953 81.884,167.887 82.081 C 167.822 82.278,167.198 82.479,166.502 82.528 C 165.806 82.577,165.236 82.720,165.235 82.845 C 165.234 83.185,162.422 83.982,162.045 83.749 C 161.866 83.638,161.719 83.753,161.719 84.003 C 161.719 84.254,161.455 84.357,161.133 84.234 C 160.811 84.110,160.547 84.198,160.547 84.429 C 160.547 84.660,160.283 84.748,159.961 84.624 C 159.639 84.501,159.375 84.589,159.375 84.820 C 159.375 85.051,159.111 85.139,158.789 85.015 C 158.467 84.891,158.203 84.975,158.203 85.201 C 158.203 85.427,157.985 85.539,157.718 85.450 C 157.452 85.362,156.992 85.530,156.696 85.826 C 156.401 86.121,155.962 86.297,155.720 86.217 C 155.478 86.136,155.036 86.314,154.738 86.612 C 154.440 86.910,153.955 87.062,153.661 86.949 C 153.366 86.836,153.125 86.924,153.125 87.145 C 153.125 87.365,152.949 87.437,152.734 87.305 C 152.520 87.172,152.344 87.268,152.344 87.519 C 152.344 87.769,152.089 87.876,151.778 87.757 C 151.373 87.602,151.283 87.729,151.460 88.203 C 151.677 88.783,151.625 88.799,151.050 88.331 C 150.585 87.953,150.391 87.931,150.391 88.256 C 150.391 88.510,150.215 88.609,150.000 88.477 C 149.785 88.344,149.609 88.389,149.609 88.576 C 149.609 89.091,146.884 90.286,146.397 89.985 C 146.125 89.817,146.087 89.908,146.293 90.240 C 146.525 90.616,146.434 90.689,145.963 90.508 C 145.605 90.371,145.313 90.440,145.313 90.660 C 145.313 90.881,145.137 90.953,144.922 90.820 C 144.707 90.688,144.531 90.775,144.531 91.016 C 144.531 91.256,144.355 91.344,144.141 91.211 C 143.926 91.078,143.750 91.152,143.750 91.375 C 143.750 91.882,140.811 93.415,140.478 93.082 C 140.344 92.948,140.234 93.039,140.234 93.284 C 140.234 93.529,139.707 94.003,139.063 94.336 C 138.418 94.669,137.891 94.816,137.891 94.662 C 137.891 94.508,137.671 94.670,137.402 95.021 C 137.134 95.373,136.665 95.714,136.361 95.779 C 136.056 95.845,135.479 96.212,135.077 96.596 C 134.675 96.980,134.196 97.201,134.011 97.087 C 133.827 96.973,133.571 97.153,133.442 97.488 C 133.314 97.823,133.050 97.998,132.856 97.879 C 132.662 97.759,132.399 97.935,132.270 98.269 C 132.142 98.604,131.878 98.780,131.684 98.660 C 131.490 98.540,131.227 98.716,131.098 99.050 C 130.970 99.385,130.706 99.561,130.512 99.441 C 130.319 99.321,130.064 99.475,129.946 99.782 C 129.828 100.089,129.853 100.411,130.002 100.497 C 130.151 100.583,130.074 100.607,129.830 100.551 C 129.586 100.495,129.015 100.710,128.560 101.028 C 128.106 101.346,127.734 101.470,127.734 101.302 C 127.734 101.135,127.459 101.392,127.122 101.873 C 126.785 102.354,126.345 102.646,126.145 102.523 C 125.945 102.399,125.781 102.463,125.781 102.664 C 125.781 102.866,124.954 103.708,123.944 104.536 C 122.933 105.364,122.262 105.781,122.452 105.462 C 122.642 105.144,121.954 105.762,120.923 106.836 C 119.893 107.910,119.289 108.438,119.582 108.008 C 119.876 107.578,118.736 108.676,117.050 110.448 C 115.363 112.220,113.821 113.569,113.623 113.446 C 113.424 113.324,113.310 113.391,113.369 113.595 C 113.516 114.103,108.693 119.103,108.351 118.798 C 108.201 118.664,108.194 118.758,108.337 119.007 C 108.480 119.258,108.081 119.893,107.445 120.429 C 106.811 120.962,106.381 121.485,106.488 121.592 C 106.594 121.699,106.189 122.173,105.587 122.647 C 104.985 123.121,104.577 123.536,104.680 123.571 C 104.784 123.605,104.592 124.027,104.255 124.509 C 103.917 124.991,103.510 125.255,103.350 125.095 C 103.191 124.935,103.102 124.980,103.154 125.195 C 103.321 125.883,102.667 126.958,102.242 126.695 C 102.017 126.556,101.947 126.627,102.087 126.853 C 102.226 127.079,101.837 127.803,101.222 128.462 C 100.606 129.121,100.193 129.750,100.303 129.860 C 100.413 129.970,100.215 130.170,99.863 130.305 C 99.511 130.440,99.320 130.707,99.437 130.897 C 99.555 131.088,99.246 131.662,98.751 132.173 C 98.257 132.684,97.798 133.345,97.732 133.641 C 97.667 133.937,97.362 134.373,97.055 134.609 C 96.748 134.845,96.607 135.149,96.742 135.283 C 96.877 135.418,96.699 135.639,96.347 135.774 C 95.995 135.909,95.805 136.177,95.924 136.369 C 96.043 136.561,95.954 136.719,95.726 136.719 C 95.499 136.719,95.341 136.851,95.376 137.012 C 95.495 137.568,94.549 139.453,94.150 139.453 C 93.930 139.453,93.792 139.585,93.843 139.746 C 94.017 140.295,92.880 142.569,92.537 142.358 C 92.350 142.242,92.312 142.449,92.454 142.817 C 92.627 143.269,92.563 143.396,92.258 143.208 C 91.968 143.028,91.885 143.134,92.027 143.504 C 92.148 143.821,91.916 144.412,91.510 144.818 C 91.104 145.224,90.849 145.790,90.944 146.075 C 91.058 146.415,90.944 146.486,90.615 146.283 C 90.299 146.087,90.210 146.129,90.374 146.395 C 90.680 146.890,89.879 148.828,89.367 148.828 C 89.174 148.828,89.125 149.004,89.258 149.219 C 89.391 149.434,89.303 149.609,89.063 149.609 C 88.822 149.609,88.734 149.785,88.867 150.000 C 89.000 150.215,88.928 150.391,88.707 150.391 C 88.486 150.391,88.407 150.654,88.531 150.977 C 88.654 151.299,88.550 151.563,88.300 151.563 C 88.049 151.563,87.953 151.738,88.086 151.953 C 88.219 152.168,88.147 152.344,87.926 152.344 C 87.705 152.344,87.617 152.585,87.730 152.879 C 87.843 153.174,87.692 153.659,87.393 153.957 C 87.095 154.255,86.924 154.717,87.013 154.984 C 87.102 155.251,87.021 155.469,86.834 155.469 C 86.647 155.469,86.465 155.862,86.429 156.342 C 86.392 156.822,86.189 157.273,85.977 157.344 C 85.764 157.414,85.688 157.725,85.806 158.033 C 85.924 158.341,85.832 158.594,85.601 158.594 C 85.370 158.594,85.282 158.857,85.406 159.180 C 85.529 159.502,85.441 159.766,85.210 159.766 C 84.979 159.766,84.891 160.029,85.015 160.352 C 85.139 160.674,85.051 160.938,84.820 160.938 C 84.589 160.938,84.501 161.201,84.624 161.523 C 84.748 161.846,84.660 162.109,84.429 162.109 C 84.198 162.109,84.110 162.373,84.234 162.695 C 84.357 163.018,84.270 163.281,84.038 163.281 C 83.807 163.281,83.713 163.527,83.828 163.828 C 83.943 164.128,83.858 164.485,83.637 164.621 C 83.417 164.757,83.336 165.127,83.457 165.442 C 83.578 165.758,83.499 166.016,83.281 166.016 C 83.064 166.016,82.978 166.367,83.090 166.797 C 83.202 167.227,83.114 167.578,82.895 167.578 C 82.675 167.578,82.587 167.930,82.699 168.359 C 82.812 168.789,82.713 169.141,82.480 169.141 C 82.247 169.141,82.150 169.387,82.265 169.687 C 82.381 169.988,82.295 170.345,82.075 170.481 C 81.855 170.617,81.767 170.968,81.880 171.262 C 81.992 171.556,81.904 171.907,81.684 172.043 C 81.464 172.179,81.384 172.551,81.506 172.869 C 81.628 173.187,81.534 173.681,81.297 173.967 C 81.060 174.252,80.974 174.594,81.106 174.726 C 81.238 174.858,81.211 175.282,81.045 175.667 C 80.879 176.052,80.782 176.763,80.829 177.246 C 80.877 177.729,80.751 178.125,80.551 178.125 C 80.350 178.125,80.270 178.564,80.373 179.102 C 80.480 179.661,80.378 180.078,80.133 180.078 C 79.872 180.078,79.794 180.513,79.932 181.203 C 80.056 181.821,79.980 182.436,79.764 182.570 C 79.546 182.704,79.465 183.509,79.581 184.375 C 79.696 185.234,79.631 185.937,79.436 185.938 C 79.082 185.938,78.966 187.435,78.956 192.121 C 78.953 193.481,78.783 194.799,78.578 195.050 C 78.135 195.593,78.138 204.725,78.581 204.452 C 78.748 204.349,84.327 204.274,90.979 204.285 C 98.740 204.299,103.161 204.165,103.317 203.911 C 103.452 203.694,103.355 203.516,103.102 203.516 C 102.836 203.516,102.729 203.188,102.848 202.734 C 102.960 202.305,102.872 201.953,102.652 201.953 C 102.432 201.953,102.345 201.602,102.457 201.172 C 102.569 200.742,102.481 200.391,102.262 200.391 C 102.042 200.391,101.954 200.039,102.066 199.610 C 102.179 199.180,102.096 198.721,101.882 198.589 C 101.669 198.457,101.581 198.018,101.687 197.612 C 101.793 197.207,101.700 196.875,101.480 196.875 C 101.261 196.875,101.173 196.523,101.285 196.094 C 101.397 195.664,101.310 195.312,101.090 195.312 C 100.870 195.312,100.782 194.961,100.894 194.531 C 101.007 194.102,100.919 193.750,100.699 193.750 C 100.479 193.750,100.384 193.311,100.486 192.773 C 100.589 192.236,100.502 191.797,100.294 191.797 C 100.085 191.797,100.025 191.359,100.160 190.820 C 100.313 190.211,100.240 189.844,99.965 189.844 C 99.687 189.844,99.618 189.473,99.778 188.834 C 99.960 188.110,99.901 187.906,99.568 188.111 C 99.240 188.314,99.163 188.096,99.303 187.363 C 99.412 186.794,99.329 186.328,99.119 186.328 C 98.909 186.328,98.821 185.889,98.924 185.352 C 99.026 184.814,98.959 184.375,98.774 184.375 C 98.589 184.375,98.438 183.310,98.438 182.008 C 98.437 180.469,98.580 179.729,98.844 179.892 C 99.106 180.055,99.162 179.794,99.002 179.156 C 98.866 178.614,98.896 177.940,99.070 177.659 C 99.243 177.379,99.335 176.665,99.273 176.074 C 99.211 175.484,99.325 175.000,99.526 175.000 C 99.727 175.000,99.808 174.561,99.705 174.023 C 99.598 173.464,99.701 173.047,99.945 173.047 C 100.210 173.047,100.283 172.605,100.137 171.875 C 100.008 171.230,100.069 170.703,100.274 170.703 C 100.479 170.703,100.569 170.176,100.474 169.531 C 100.379 168.887,100.473 168.359,100.683 168.359 C 100.892 168.359,100.980 167.920,100.877 167.383 C 100.774 166.846,100.870 166.406,101.090 166.406 C 101.310 166.406,101.397 166.055,101.285 165.625 C 101.173 165.195,101.272 164.844,101.505 164.844 C 101.738 164.844,101.837 164.604,101.724 164.312 C 101.277 163.145,106.720 158.803,107.568 159.651 C 107.702 159.786,107.813 159.680,107.813 159.417 C 107.813 159.154,107.988 159.047,108.203 159.180 C 108.418 159.312,108.594 159.263,108.594 159.070 C 108.594 158.593,110.516 157.747,110.967 158.026 C 111.166 158.149,111.328 158.053,111.328 157.813 C 111.328 157.572,111.504 157.484,111.719 157.617 C 111.934 157.750,112.109 157.662,112.109 157.422 C 112.109 157.182,112.285 157.094,112.500 157.227 C 112.715 157.359,112.891 157.263,112.891 157.013 C 112.891 156.762,113.154 156.658,113.477 156.782 C 113.799 156.906,114.063 156.826,114.063 156.605 C 114.063 156.385,114.238 156.313,114.453 156.445 C 114.668 156.578,114.844 156.490,114.844 156.250 C 114.844 156.010,115.000 155.910,115.190 156.027 C 115.381 156.145,115.760 155.972,116.034 155.642 C 116.308 155.312,116.767 155.133,117.055 155.243 C 117.343 155.354,117.578 155.264,117.578 155.043 C 117.578 154.822,117.754 154.750,117.969 154.883 C 118.184 155.016,118.359 154.966,118.359 154.773 C 118.359 154.296,120.282 153.451,120.732 153.729 C 120.931 153.852,121.094 153.783,121.094 153.577 C 121.094 153.127,123.273 152.309,123.600 152.636 C 123.725 152.762,123.828 152.649,123.828 152.386 C 123.828 152.122,124.004 152.016,124.219 152.148 C 124.434 152.281,124.609 152.204,124.609 151.976 C 124.609 151.749,124.741 151.600,124.902 151.645 C 125.063 151.691,125.568 151.522,126.023 151.269 C 126.478 151.016,126.961 150.920,127.097 151.055 C 127.233 151.191,127.344 151.087,127.344 150.823 C 127.344 150.560,127.520 150.453,127.734 150.586 C 127.949 150.719,128.125 150.660,128.125 150.456 C 128.125 150.099,129.963 149.413,130.566 149.545 C 130.728 149.581,130.859 149.423,130.859 149.196 C 130.859 148.968,131.035 148.891,131.250 149.023 C 131.465 149.156,131.641 149.068,131.641 148.828 C 131.641 148.588,131.801 148.491,131.998 148.612 C 132.194 148.734,132.417 148.647,132.493 148.419 C 132.569 148.191,132.980 147.947,133.406 147.876 C 133.831 147.806,134.143 147.574,134.099 147.362 C 134.055 147.150,136.360 144.674,139.222 141.860 C 142.085 139.046,144.318 136.636,144.186 136.504 C 144.054 136.371,144.209 136.322,144.531 136.393 C 144.856 136.465,145.069 136.293,145.010 136.006 C 144.951 135.722,145.084 135.601,145.306 135.738 C 145.527 135.875,145.818 135.702,145.952 135.354 C 146.085 135.006,146.424 134.809,146.705 134.917 C 146.986 135.024,147.270 134.963,147.338 134.779 C 147.406 134.596,147.813 134.387,148.242 134.313 C 148.672 134.240,149.132 134.031,149.265 133.849 C 149.398 133.666,149.970 133.491,150.535 133.458 C 151.100 133.425,151.562 133.248,151.562 133.064 C 151.562 132.880,151.826 132.830,152.148 132.954 C 152.471 133.077,152.734 132.990,152.734 132.758 C 152.734 132.527,152.998 132.439,153.320 132.563 C 153.643 132.687,153.906 132.599,153.906 132.368 C 153.906 132.137,154.170 132.049,154.492 132.173 C 154.814 132.296,155.078 132.208,155.078 131.977 C 155.078 131.746,155.330 131.654,155.639 131.772 C 155.947 131.891,156.264 131.795,156.342 131.559 C 156.421 131.324,156.828 131.094,157.246 131.048 C 157.665 131.003,158.447 130.787,158.984 130.568 C 159.521 130.349,160.093 130.247,160.254 130.342 C 160.415 130.437,160.547 130.310,160.547 130.059 C 160.547 129.809,160.811 129.705,161.133 129.829 C 161.455 129.952,161.719 129.897,161.719 129.706 C 161.719 129.396,163.632 128.754,164.648 128.723 C 164.863 128.716,165.148 128.562,165.281 128.380 C 165.414 128.198,165.985 128.022,166.550 127.989 C 167.115 127.956,167.578 127.779,167.578 127.595 C 167.578 127.411,167.842 127.361,168.164 127.485 C 168.486 127.609,168.750 127.521,168.750 127.290 C 168.750 127.059,169.014 126.971,169.336 127.094 C 169.658 127.218,169.922 127.130,169.922 126.899 C 169.922 126.668,170.186 126.580,170.508 126.704 C 170.830 126.827,171.094 126.740,171.094 126.508 C 171.094 126.277,171.357 126.189,171.680 126.313 C 172.002 126.437,172.266 126.349,172.266 126.118 C 172.266 125.887,172.529 125.799,172.852 125.923 C 173.174 126.046,173.438 125.958,173.438 125.727 C 173.438 125.496,173.690 125.404,173.998 125.522 C 174.307 125.641,174.614 125.598,174.682 125.427 C 174.859 124.978,182.850 122.243,183.254 122.492 C 183.441 122.608,183.594 122.497,183.594 122.247 C 183.594 121.996,183.857 121.893,184.180 122.016 C 184.502 122.140,184.766 122.052,184.766 121.821 C 184.766 121.590,185.029 121.502,185.352 121.626 C 185.674 121.749,185.938 121.661,185.938 121.430 C 185.938 121.199,186.201 121.111,186.523 121.235 C 186.846 121.359,187.109 121.328,187.109 121.167 C 187.109 120.764,189.490 119.898,189.901 120.153 C 190.084 120.266,190.234 120.154,190.234 119.903 C 190.234 119.653,190.498 119.549,190.820 119.673 C 191.143 119.796,191.406 119.708,191.406 119.477 C 191.406 119.246,191.670 119.158,191.992 119.282 C 192.314 119.406,192.578 119.318,192.578 119.087 C 192.578 118.855,192.842 118.768,193.164 118.891 C 193.486 119.015,193.750 118.927,193.750 118.696 C 193.750 118.465,194.014 118.377,194.336 118.501 C 194.658 118.624,194.922 118.536,194.922 118.305 C 194.922 118.074,195.168 117.980,195.470 118.095 C 195.771 118.211,196.132 118.190,196.273 118.050 C 196.662 117.661,200.781 117.615,200.781 117.999 C 200.781 118.184,201.027 118.240,201.328 118.125 C 201.628 118.010,201.985 118.096,202.121 118.316 C 202.257 118.536,202.627 118.617,202.942 118.496 C 203.258 118.375,203.516 118.454,203.516 118.672 C 203.516 118.889,203.867 118.976,204.297 118.863 C 204.727 118.751,205.079 118.811,205.079 118.997 C 205.080 119.184,205.643 119.356,206.331 119.382 C 207.019 119.407,207.643 119.608,207.716 119.828 C 207.790 120.049,208.193 120.140,208.612 120.030 C 209.032 119.920,209.375 119.983,209.376 120.169 C 209.376 120.355,209.946 120.548,210.643 120.597 C 211.339 120.646,211.962 120.847,212.028 121.044 C 212.093 121.241,212.490 121.312,212.909 121.202 C 213.329 121.092,213.672 121.155,213.673 121.341 C 213.673 121.527,214.237 121.700,214.925 121.725 C 215.613 121.750,216.239 121.960,216.316 122.192 C 216.394 122.423,216.691 122.522,216.978 122.412 C 217.265 122.302,217.610 122.392,217.746 122.613 C 217.882 122.833,218.252 122.914,218.567 122.793 C 218.883 122.672,219.141 122.751,219.141 122.969 C 219.141 123.186,219.492 123.272,219.922 123.160 C 220.352 123.048,220.703 123.136,220.703 123.355 C 220.703 123.575,221.055 123.663,221.484 123.551 C 221.914 123.438,222.266 123.537,222.266 123.770 C 222.266 124.003,222.512 124.100,222.812 123.985 C 223.113 123.869,223.470 123.955,223.606 124.175 C 223.742 124.395,224.111 124.476,224.427 124.355 C 224.742 124.234,225.000 124.342,225.000 124.594 C 225.000 124.875,225.303 124.957,225.781 124.805 C 226.219 124.666,226.563 124.734,226.563 124.961 C 226.563 125.184,226.808 125.272,227.109 125.156 C 227.409 125.041,227.761 125.118,227.891 125.327 C 228.020 125.537,228.477 125.616,228.907 125.504 C 229.336 125.391,229.688 125.490,229.688 125.723 C 229.688 125.957,229.951 126.046,230.273 125.923 C 230.596 125.799,230.859 125.857,230.859 126.052 C 230.859 126.247,231.507 126.406,232.298 126.406 C 233.090 126.406,233.801 126.599,233.879 126.834 C 233.958 127.069,234.365 127.171,234.784 127.061 C 235.204 126.952,235.547 127.042,235.547 127.262 C 235.547 127.481,235.898 127.569,236.328 127.457 C 236.758 127.345,237.109 127.432,237.109 127.652 C 237.109 127.872,237.488 127.953,237.952 127.832 C 238.491 127.690,238.702 127.761,238.537 128.027 C 238.375 128.289,238.570 128.367,239.062 128.238 C 239.492 128.126,239.844 128.214,239.844 128.433 C 239.844 128.653,240.195 128.741,240.625 128.629 C 241.055 128.516,241.406 128.615,241.406 128.848 C 241.406 129.082,241.652 129.178,241.953 129.063 C 242.253 128.947,242.605 129.024,242.734 129.234 C 242.864 129.443,243.321 129.522,243.750 129.410 C 244.180 129.298,244.531 129.386,244.531 129.605 C 244.531 129.825,244.883 129.913,245.313 129.801 C 245.742 129.688,246.094 129.787,246.094 130.020 C 246.094 130.253,246.357 130.343,246.680 130.219 C 247.002 130.096,247.266 130.173,247.266 130.390 C 247.266 130.608,247.617 130.694,248.047 130.582 C 248.501 130.463,248.828 130.570,248.828 130.837 C 248.828 131.089,249.004 131.187,249.219 131.055 C 249.434 130.922,249.829 130.951,250.098 131.119 C 250.631 131.453,250.835 131.493,252.464 131.581 C 253.068 131.614,253.463 131.800,253.343 131.995 C 253.222 132.190,253.476 132.257,253.906 132.145 C 254.336 132.032,254.688 132.120,254.688 132.340 C 254.688 132.560,255.039 132.647,255.469 132.535 C 255.923 132.416,256.250 132.523,256.250 132.790 C 256.250 133.043,256.426 133.141,256.641 133.008 C 256.855 132.875,257.243 132.897,257.502 133.057 C 257.761 133.217,258.508 133.406,259.162 133.478 C 259.816 133.549,260.404 133.761,260.468 133.950 C 260.532 134.138,260.927 134.202,261.347 134.093 C 261.766 133.983,262.109 134.073,262.109 134.293 C 262.109 134.513,262.461 134.601,262.891 134.488 C 263.320 134.376,263.672 134.436,263.673 134.622 C 263.673 134.809,264.243 135.001,264.939 135.050 C 265.636 135.099,266.259 135.301,266.325 135.497 C 266.390 135.694,266.787 135.765,267.206 135.655 C 267.626 135.545,267.969 135.636,267.969 135.855 C 267.969 136.075,268.320 136.163,268.750 136.051 C 269.180 135.938,269.532 135.999,269.532 136.185 C 269.532 136.371,270.103 136.564,270.799 136.613 C 271.495 136.662,272.121 136.872,272.190 137.079 C 272.260 137.286,272.551 137.366,272.837 137.256 C 273.124 137.146,273.464 137.227,273.594 137.437 C 273.723 137.646,274.180 137.725,274.610 137.613 C 275.039 137.501,275.391 137.589,275.391 137.808 C 275.391 138.028,275.742 138.116,276.172 138.004 C 276.602 137.891,276.953 137.990,276.953 138.223 C 276.953 138.457,277.217 138.546,277.539 138.423 C 277.861 138.299,278.125 138.387,278.125 138.618 C 278.125 138.849,278.389 138.937,278.711 138.813 C 279.033 138.689,279.297 138.777,279.297 139.008 C 279.297 139.240,279.561 139.327,279.883 139.204 C 280.205 139.080,280.469 139.174,280.469 139.411 C 280.469 139.649,280.601 139.816,280.762 139.782 C 281.321 139.663,282.416 140.318,282.212 140.649 C 282.099 140.832,282.450 141.272,282.992 141.627 C 283.534 141.982,283.892 142.411,283.788 142.580 C 283.684 142.749,283.872 142.992,284.207 143.120 C 284.541 143.249,284.706 143.531,284.572 143.747 C 284.438 143.964,284.507 144.141,284.724 144.141 C 284.941 144.141,285.663 144.932,286.328 145.898 C 286.993 146.865,287.408 147.656,287.249 147.656 C 287.090 147.656,287.301 147.914,287.718 148.230 C 288.135 148.545,288.362 148.809,288.222 148.816 C 288.082 148.823,288.483 149.380,289.113 150.054 C 289.742 150.728,290.187 151.349,290.102 151.435 C 290.016 151.520,290.456 152.135,291.079 152.802 C 291.701 153.468,292.141 154.083,292.055 154.169 C 291.970 154.254,292.403 154.863,293.019 155.522 C 293.634 156.181,294.051 156.860,293.946 157.030 C 293.841 157.201,294.042 157.450,294.394 157.585 C 294.746 157.720,294.922 157.943,294.785 158.080 C 294.648 158.216,294.890 158.576,295.322 158.878 C 295.753 159.181,296.017 159.574,295.907 159.751 C 295.797 159.929,295.981 160.179,296.316 160.308 C 296.651 160.436,296.826 160.700,296.707 160.894 C 296.587 161.088,296.763 161.351,297.097 161.480 C 297.432 161.608,297.608 161.872,297.488 162.066 C 297.368 162.260,297.544 162.523,297.879 162.652 C 298.213 162.780,298.389 163.044,298.269 163.238 C 298.149 163.431,298.339 163.700,298.691 163.835 C 299.043 163.970,299.220 164.191,299.085 164.326 C 298.951 164.461,299.094 164.764,299.403 165.000 C 299.713 165.237,300.050 165.910,300.152 166.497 C 300.253 167.085,300.443 167.737,300.572 167.947 C 300.925 168.517,301.096 171.874,300.761 171.667 C 300.243 171.347,299.967 172.756,300.219 174.436 C 300.366 175.414,300.303 176.180,300.063 176.328 C 299.839 176.467,299.758 177.176,299.881 177.934 C 300.009 178.722,299.909 179.522,299.643 179.842 C 299.382 180.157,299.294 180.828,299.439 181.407 C 299.579 181.964,299.567 182.728,299.412 183.105 C 299.257 183.481,299.071 184.404,298.999 185.156 C 298.926 185.908,298.770 187.227,298.652 188.086 C 298.534 188.945,298.441 190.308,298.447 191.113 C 298.452 191.919,298.287 192.578,298.081 192.578 C 297.873 192.578,297.801 193.165,297.919 193.896 C 298.037 194.620,297.955 195.323,297.736 195.458 C 297.515 195.595,297.432 196.392,297.550 197.266 C 297.681 198.245,297.603 198.828,297.342 198.828 C 297.080 198.828,297.010 199.355,297.152 200.234 C 297.281 201.025,297.206 201.752,296.982 201.895 C 296.763 202.034,296.668 202.712,296.771 203.401 L 296.959 204.653 309.026 204.664 C 317.151 204.672,321.094 204.542,321.094 204.268 C 321.094 204.044,321.285 203.978,321.518 204.122 C 321.928 204.376,321.916 203.687,321.318 192.188 C 321.246 190.791,321.056 189.333,320.896 188.948 C 320.737 188.562,320.705 187.640,320.826 186.897 C 320.961 186.063,320.885 185.547,320.627 185.547 C 320.366 185.547,320.288 184.963,320.419 183.984 C 320.540 183.082,320.467 182.422,320.246 182.422 C 320.035 182.422,319.901 181.938,319.948 181.348 C 319.996 180.757,319.902 179.966,319.741 179.590 C 319.580 179.214,319.547 178.648,319.668 178.333 C 319.789 178.017,319.705 177.647,319.483 177.509 C 319.260 177.371,319.183 176.838,319.312 176.325 C 319.441 175.811,319.386 175.391,319.189 175.391 C 318.993 175.391,318.823 174.995,318.810 174.512 C 318.778 173.218,318.557 172.120,318.220 171.575 C 318.057 171.310,318.024 170.930,318.147 170.730 C 318.271 170.530,318.186 170.252,317.959 170.111 C 317.732 169.971,317.653 169.519,317.784 169.108 C 317.926 168.660,317.837 168.359,317.563 168.359 C 317.310 168.359,317.205 168.096,317.329 167.773 C 317.452 167.451,317.363 167.188,317.130 167.188 C 316.897 167.187,316.798 166.836,316.910 166.406 C 317.022 165.977,316.936 165.625,316.719 165.625 C 316.501 165.625,316.424 165.361,316.548 165.039 C 316.671 164.717,316.590 164.453,316.368 164.453 C 316.141 164.453,316.072 164.110,316.211 163.672 C 316.363 163.193,316.281 162.891,316.000 162.891 C 315.748 162.891,315.643 162.627,315.766 162.305 C 315.890 161.982,315.802 161.719,315.571 161.719 C 315.340 161.719,315.252 161.455,315.376 161.133 C 315.499 160.811,315.411 160.547,315.180 160.547 C 314.949 160.547,314.861 160.283,314.985 159.961 C 315.109 159.639,315.021 159.375,314.790 159.375 C 314.559 159.375,314.471 159.111,314.594 158.789 C 314.718 158.467,314.630 158.203,314.399 158.203 C 314.168 158.203,314.076 157.951,314.194 157.642 C 314.312 157.334,314.236 157.024,314.023 156.953 C 313.811 156.882,313.608 156.431,313.571 155.951 C 313.535 155.471,313.348 155.078,313.156 155.078 C 312.964 155.078,312.908 154.814,313.032 154.492 C 313.156 154.170,313.076 153.906,312.855 153.906 C 312.635 153.906,312.553 153.745,312.675 153.549 C 312.796 153.352,312.711 153.130,312.485 153.055 C 312.259 152.980,312.045 152.525,312.009 152.045 C 311.973 151.565,311.775 151.172,311.571 151.172 C 311.366 151.172,311.307 151.063,311.440 150.930 C 311.573 150.797,311.416 150.423,311.092 150.098 C 310.767 149.774,310.594 149.268,310.707 148.973 C 310.820 148.679,310.732 148.437,310.512 148.438 C 310.291 148.438,310.219 148.262,310.352 148.047 C 310.484 147.832,310.378 147.656,310.114 147.656 C 309.851 147.656,309.744 147.547,309.877 147.414 C 310.010 147.281,309.862 146.916,309.548 146.602 C 309.234 146.288,309.077 145.869,309.199 145.672 C 309.321 145.474,309.206 145.313,308.942 145.313 C 308.679 145.313,308.572 145.204,308.705 145.071 C 308.838 144.938,308.690 144.572,308.376 144.258 C 308.062 143.944,307.905 143.525,308.027 143.328 C 308.149 143.130,308.053 142.969,307.813 142.969 C 307.572 142.969,307.484 142.793,307.617 142.578 C 307.750 142.363,307.662 142.188,307.422 142.188 C 307.182 142.188,307.094 142.012,307.227 141.797 C 307.359 141.582,307.271 141.406,307.031 141.406 C 306.791 141.406,306.703 141.230,306.836 141.016 C 306.969 140.801,306.929 140.625,306.748 140.625 C 306.567 140.625,306.107 140.098,305.726 139.453 C 305.345 138.809,305.132 138.281,305.251 138.281 C 305.371 138.281,305.111 137.923,304.673 137.486 C 304.236 137.048,303.982 136.521,304.110 136.314 C 304.238 136.107,304.146 135.938,303.906 135.938 C 303.666 135.938,303.567 135.780,303.686 135.588 C 303.805 135.395,303.614 135.128,303.262 134.993 C 302.910 134.858,302.717 134.653,302.833 134.537 C 302.948 134.421,302.620 133.871,302.104 133.313 C 301.587 132.756,301.235 132.228,301.322 132.141 C 301.409 132.054,301.063 131.532,300.552 130.981 C 300.042 130.431,299.708 129.845,299.810 129.679 C 299.912 129.514,299.708 129.268,299.356 129.133 C 299.004 128.998,298.822 128.782,298.951 128.653 C 299.080 128.524,298.797 128.095,298.323 127.699 C 297.849 127.303,297.612 126.973,297.797 126.966 C 297.982 126.959,297.718 126.607,297.211 126.185 C 296.704 125.762,296.440 125.411,296.625 125.404 C 296.810 125.396,296.547 125.045,296.039 124.622 C 295.532 124.200,295.273 123.848,295.463 123.841 C 295.653 123.834,295.349 123.466,294.787 123.024 C 294.225 122.582,293.806 122.083,293.855 121.915 C 293.905 121.748,293.378 121.130,292.685 120.544 C 291.992 119.957,291.458 119.357,291.499 119.211 C 291.540 119.065,290.349 117.732,288.853 116.249 C 287.357 114.766,286.484 113.791,286.914 114.081 C 287.344 114.372,286.921 113.792,285.974 112.794 C 285.027 111.795,284.129 111.013,283.979 111.056 C 283.528 111.183,279.751 107.491,280.022 107.187 C 280.160 107.033,280.070 107.023,279.821 107.165 C 279.569 107.309,278.918 106.890,278.356 106.221 C 277.799 105.559,277.337 105.164,277.328 105.341 C 277.319 105.519,276.769 105.049,276.104 104.297 C 275.440 103.545,275.022 103.193,275.175 103.516 C 275.328 103.838,275.000 103.608,274.446 103.006 C 273.891 102.403,273.432 102.051,273.425 102.224 C 273.417 102.397,273.088 102.151,272.692 101.677 C 272.296 101.203,271.886 100.900,271.782 101.005 C 271.677 101.109,271.040 100.680,270.366 100.050 C 269.692 99.420,269.135 99.020,269.128 99.160 C 269.121 99.300,268.902 99.133,268.640 98.789 C 268.378 98.446,268.030 98.142,267.867 98.114 C 267.088 97.980,265.234 96.809,265.234 96.451 C 265.234 96.229,265.057 96.157,264.841 96.291 C 264.625 96.424,264.343 96.260,264.214 95.925 C 264.086 95.591,263.830 95.410,263.645 95.524 C 263.461 95.638,262.966 95.388,262.547 94.969 C 262.127 94.549,261.681 94.308,261.556 94.434 C 261.431 94.559,261.328 94.427,261.328 94.141 C 261.328 93.854,261.218 93.730,261.083 93.865 C 260.761 94.187,258.594 93.059,258.594 92.568 C 258.594 92.359,258.462 92.222,258.301 92.265 C 257.768 92.406,256.250 91.751,256.250 91.380 C 256.250 91.180,256.109 91.060,255.937 91.113 C 255.450 91.265,251.563 89.363,251.563 88.973 C 251.563 88.782,251.387 88.734,251.172 88.867 C 250.957 89.000,250.781 88.912,250.781 88.672 C 250.781 88.432,250.605 88.344,250.391 88.477 C 250.176 88.609,250.000 88.537,250.000 88.317 C 250.000 88.096,249.759 88.008,249.464 88.121 C 249.170 88.234,248.685 88.082,248.387 87.784 C 248.089 87.486,247.647 87.308,247.405 87.388 C 247.163 87.469,246.724 87.293,246.429 86.998 C 246.133 86.702,245.649 86.542,245.352 86.640 C 245.004 86.756,244.918 86.650,245.110 86.340 C 245.340 85.967,245.223 85.958,244.587 86.298 C 243.926 86.652,243.808 86.632,243.976 86.193 C 244.127 85.801,243.906 85.680,243.186 85.759 C 242.544 85.830,242.188 85.676,242.188 85.329 C 242.188 85.011,241.948 84.882,241.602 85.015 C 241.279 85.139,241.016 85.051,241.016 84.820 C 241.016 84.589,240.752 84.501,240.430 84.624 C 240.107 84.748,239.844 84.660,239.844 84.429 C 239.844 84.198,239.580 84.110,239.258 84.234 C 238.936 84.357,238.672 84.270,238.672 84.038 C 238.672 83.807,238.408 83.719,238.086 83.843 C 237.764 83.967,237.500 83.879,237.500 83.648 C 237.500 83.417,237.236 83.329,236.914 83.452 C 236.592 83.576,236.328 83.488,236.328 83.257 C 236.328 83.026,236.082 82.931,235.782 83.047 C 235.481 83.162,235.124 83.076,234.988 82.856 C 234.852 82.636,234.483 82.555,234.167 82.676 C 233.852 82.797,233.594 82.707,233.594 82.476 C 233.594 82.245,233.348 82.150,233.047 82.265 C 232.747 82.381,232.390 82.295,232.254 82.075 C 232.118 81.855,231.748 81.774,231.433 81.895 C 231.117 82.016,230.859 81.908,230.859 81.656 C 230.859 81.375,230.557 81.293,230.078 81.445 C 229.619 81.591,229.297 81.516,229.297 81.263 C 229.297 80.953,229.077 80.949,228.516 81.250 C 227.890 81.585,227.734 81.547,227.734 81.061 C 227.734 80.608,227.486 80.516,226.758 80.699 C 226.197 80.840,225.781 80.775,225.781 80.548 C 225.781 80.330,225.430 80.243,225.000 80.356 C 224.570 80.468,224.219 80.368,224.219 80.133 C 224.219 79.868,223.776 79.795,223.047 79.941 C 222.291 80.093,221.875 80.017,221.875 79.729 C 221.875 79.453,221.518 79.372,220.941 79.516 C 220.427 79.645,219.904 79.584,219.779 79.381 C 219.653 79.177,219.127 79.092,218.610 79.191 C 218.093 79.290,217.554 79.184,217.413 78.956 C 217.270 78.723,216.651 78.643,216.001 78.772 C 215.343 78.904,214.606 78.805,214.288 78.541 C 213.940 78.251,213.207 78.177,212.330 78.341 C 211.472 78.502,210.721 78.431,210.391 78.158 C 210.041 77.867,209.258 77.812,208.149 77.999 C 207.212 78.157,206.271 78.236,206.058 78.175 C 205.845 78.113,205.318 78.045,204.886 78.025 C 204.455 78.004,203.926 77.876,203.711 77.740 C 203.059 77.329,197.174 77.271,197.426 77.678 M285.917 113.413 C 285.821 113.499,285.318 113.021,284.799 112.351 L 283.856 111.133 284.974 112.195 C 285.588 112.780,286.013 113.328,285.917 113.413 M111.109 192.227 C 110.912 192.546,110.982 192.597,111.324 192.385 C 111.706 192.149,111.784 192.325,111.637 193.094 C 111.518 193.713,111.594 194.023,111.828 193.878 C 112.064 193.732,112.145 194.109,112.037 194.846 C 111.940 195.509,111.989 195.973,112.145 195.876 C 112.545 195.629,113.018 198.697,112.667 199.265 C 112.494 199.544,112.545 199.627,112.796 199.473 C 113.297 199.163,113.874 202.091,113.448 202.780 C 113.275 203.060,113.327 203.143,113.577 202.988 C 114.078 202.679,114.655 205.607,114.229 206.296 C 114.057 206.576,114.108 206.659,114.358 206.504 C 114.859 206.194,115.437 209.122,115.011 209.812 C 114.818 210.124,114.890 210.174,115.231 209.963 C 115.613 209.727,115.690 209.903,115.543 210.672 C 115.423 211.298,115.499 211.601,115.738 211.454 C 115.977 211.306,116.053 211.609,115.933 212.235 C 115.826 212.797,115.869 213.177,116.029 213.078 C 116.427 212.832,116.903 215.528,116.560 216.083 C 116.409 216.328,116.458 216.421,116.669 216.290 C 116.885 216.156,117.438 217.388,117.935 219.109 C 118.805 222.118,118.847 222.178,120.723 223.056 C 121.771 223.547,122.519 224.124,122.386 224.339 C 122.254 224.554,122.335 224.613,122.567 224.469 C 123.099 224.140,125.046 225.000,124.772 225.443 C 124.660 225.624,124.870 225.657,125.239 225.515 C 125.691 225.342,125.818 225.405,125.630 225.710 C 125.441 226.015,125.569 226.079,126.020 225.906 C 126.472 225.732,126.599 225.796,126.411 226.101 C 126.222 226.406,126.350 226.470,126.802 226.296 C 127.253 226.123,127.381 226.187,127.192 226.492 C 127.004 226.797,127.131 226.860,127.583 226.687 C 128.035 226.514,128.162 226.577,127.973 226.882 C 127.785 227.187,127.912 227.251,128.364 227.078 C 128.855 226.889,128.949 226.959,128.715 227.338 C 128.497 227.689,128.545 227.762,128.864 227.565 C 129.122 227.405,130.125 227.647,131.092 228.102 C 132.060 228.556,133.045 228.808,133.283 228.662 C 133.528 228.510,133.605 228.572,133.461 228.805 C 133.157 229.297,134.272 229.797,134.861 229.433 C 135.096 229.288,135.163 229.360,135.016 229.599 C 134.872 229.832,135.111 230.135,135.547 230.273 C 135.983 230.412,136.240 230.686,136.118 230.883 C 135.996 231.080,136.198 231.126,136.567 230.984 C 137.058 230.796,137.152 230.865,136.918 231.244 C 136.715 231.573,136.750 231.668,137.014 231.504 C 137.495 231.207,138.744 231.599,138.512 231.975 C 138.426 232.113,138.735 232.242,139.197 232.260 C 139.660 232.279,140.328 232.422,140.681 232.579 C 141.215 232.816,141.347 232.568,141.463 231.118 C 141.539 230.157,141.484 229.444,141.340 229.533 C 140.954 229.772,140.520 227.439,140.852 226.902 C 141.022 226.626,140.969 226.545,140.718 226.700 C 140.198 227.022,138.886 223.258,139.290 222.605 C 139.449 222.347,139.407 222.248,139.194 222.380 C 138.709 222.680,137.749 220.077,138.122 219.473 C 138.286 219.208,138.232 219.125,137.993 219.273 C 137.507 219.573,136.965 217.738,137.353 217.109 C 137.526 216.829,137.440 216.788,137.108 216.993 C 136.726 217.229,136.652 217.095,136.816 216.467 C 136.957 215.927,136.887 215.716,136.621 215.881 C 136.354 216.045,136.284 215.835,136.425 215.295 C 136.547 214.831,136.492 214.547,136.303 214.664 C 135.849 214.944,135.391 213.068,135.766 212.462 C 135.964 212.140,135.894 212.090,135.546 212.305 C 135.164 212.541,135.089 212.407,135.254 211.779 C 135.375 211.316,135.335 211.022,135.165 211.127 C 134.752 211.382,133.890 207.891,134.229 207.341 C 134.401 207.064,134.314 207.023,133.988 207.224 C 133.606 207.460,133.529 207.285,133.676 206.515 C 133.784 205.953,133.735 205.576,133.569 205.679 C 133.403 205.782,133.152 205.345,133.012 204.709 C 132.869 204.054,132.428 203.446,131.998 203.310 C 131.581 203.177,131.338 202.908,131.460 202.711 C 131.582 202.513,131.380 202.468,131.011 202.610 C 130.520 202.798,130.426 202.729,130.660 202.350 C 130.873 202.006,130.829 201.926,130.530 202.111 C 129.992 202.443,126.826 200.648,127.233 200.241 C 127.388 200.086,127.184 200.086,126.779 200.241 C 126.322 200.416,126.136 200.374,126.287 200.130 C 126.431 199.896,126.075 199.764,125.409 199.804 C 124.528 199.856,124.317 199.722,124.422 199.176 C 124.518 198.677,124.381 198.550,123.933 198.722 C 123.485 198.893,123.400 198.815,123.629 198.444 C 123.842 198.100,123.798 198.019,123.499 198.204 C 122.969 198.532,120.655 197.268,120.940 196.808 C 121.047 196.635,120.833 196.609,120.464 196.751 C 119.973 196.939,119.879 196.869,120.113 196.490 C 120.326 196.146,120.282 196.066,119.983 196.251 C 119.454 196.578,117.140 195.315,117.424 194.855 C 117.531 194.682,117.317 194.656,116.948 194.797 C 116.458 194.986,116.364 194.916,116.598 194.537 C 116.810 194.193,116.767 194.113,116.467 194.298 C 115.936 194.627,114.330 193.613,114.737 193.206 C 114.890 193.053,114.684 193.055,114.279 193.210 C 113.728 193.421,113.624 193.363,113.863 192.975 C 114.073 192.635,114.032 192.551,113.743 192.729 C 113.501 192.879,112.875 192.721,112.352 192.378 C 111.631 191.905,111.330 191.869,111.109 192.227 M161.230 203.785 C 160.809 203.895,160.532 204.364,160.508 205.009 C 160.471 205.996,160.455 206.005,160.215 205.165 C 160.075 204.675,159.961 207.488,159.961 211.415 C 159.961 218.672,159.789 220.694,159.353 218.555 C 159.222 217.910,159.166 219.316,159.229 221.680 C 159.305 224.488,159.230 225.571,159.015 224.805 L 158.686 223.633 158.640 224.684 C 158.615 225.262,158.733 225.821,158.903 225.926 C 159.073 226.031,159.164 227.867,159.106 230.006 C 159.028 232.886,159.125 233.891,159.481 233.878 C 160.733 233.834,161.353 234.019,161.136 234.371 C 160.994 234.600,161.169 234.652,161.567 234.499 C 162.058 234.311,162.152 234.381,161.918 234.760 C 161.704 235.105,161.749 235.184,162.053 234.996 C 162.646 234.629,164.140 235.106,163.853 235.571 C 163.731 235.767,163.879 235.833,164.182 235.717 C 164.972 235.414,169.974 237.490,169.664 237.992 C 169.515 238.232,169.598 238.286,169.865 238.121 C 170.458 237.754,171.952 238.231,171.665 238.696 C 171.543 238.892,171.691 238.959,171.993 238.843 C 172.760 238.548,180.104 241.440,179.807 241.919 C 179.671 242.139,179.764 242.186,180.020 242.028 C 180.624 241.655,183.227 242.615,182.927 243.100 C 182.795 243.312,182.894 243.355,183.150 243.197 C 183.799 242.796,186.396 243.715,186.076 244.232 C 185.922 244.482,186.001 244.538,186.271 244.371 C 186.910 243.976,188.348 244.498,188.031 245.010 C 187.875 245.263,187.952 245.320,188.224 245.152 C 188.789 244.804,190.318 245.252,190.049 245.687 C 189.941 245.862,190.070 245.998,190.336 245.988 C 191.590 245.943,192.213 246.128,191.995 246.480 C 191.864 246.692,191.999 246.773,192.295 246.659 C 192.592 246.546,193.316 246.636,193.906 246.860 L 194.977 247.267 194.852 243.750 C 194.775 241.584,194.877 240.231,195.117 240.227 C 195.332 240.225,195.289 240.083,195.021 239.913 C 194.523 239.597,194.232 223.456,194.711 222.682 C 194.829 222.490,194.706 222.243,194.436 222.133 C 194.118 222.005,194.083 221.821,194.336 221.612 C 194.880 221.163,195.083 219.776,194.557 220.101 C 194.328 220.243,194.141 220.172,194.141 219.945 C 194.141 219.717,194.316 219.531,194.531 219.531 C 194.746 219.531,194.910 219.048,194.894 218.457 C 194.871 217.550,194.821 217.501,194.569 218.143 C 194.282 218.879,194.265 218.877,194.057 218.083 C 193.907 217.508,193.133 217.004,191.460 216.395 C 190.150 215.917,189.160 215.392,189.261 215.229 C 189.362 215.066,189.227 214.940,188.961 214.949 C 187.744 214.993,187.081 214.815,187.277 214.497 C 187.395 214.307,187.274 214.159,187.008 214.168 C 185.671 214.216,185.130 214.030,185.389 213.612 C 185.562 213.331,185.496 213.267,185.213 213.441 C 184.574 213.836,183.137 213.314,183.453 212.802 C 183.610 212.549,183.532 212.492,183.260 212.660 C 182.621 213.055,181.184 212.533,181.500 212.021 C 181.656 211.768,181.579 211.711,181.307 211.879 C 180.668 212.274,179.230 211.752,179.547 211.240 C 179.703 210.987,179.626 210.930,179.354 211.098 C 178.715 211.492,177.277 210.970,177.594 210.458 C 177.750 210.205,177.673 210.148,177.401 210.316 C 176.807 210.683,175.314 210.206,175.601 209.742 C 175.723 209.545,175.521 209.499,175.152 209.641 C 174.661 209.829,174.567 209.760,174.801 209.381 C 175.015 209.035,174.970 208.957,174.666 209.145 C 174.073 209.511,172.579 209.034,172.866 208.570 C 172.988 208.373,172.787 208.328,172.417 208.469 C 171.963 208.644,171.838 208.579,172.029 208.271 C 172.238 207.932,172.048 207.915,171.286 208.204 C 169.859 208.747,169.647 208.691,170.531 208.007 C 171.266 207.438,171.266 207.428,170.541 207.683 C 169.983 207.879,169.875 207.814,170.113 207.428 C 170.327 207.082,170.282 207.004,169.979 207.191 C 169.340 207.586,167.902 207.064,168.219 206.552 C 168.369 206.309,168.299 206.241,168.055 206.392 C 167.450 206.766,164.403 205.475,164.711 204.976 C 164.851 204.751,164.782 204.680,164.558 204.818 C 164.007 205.159,161.664 204.310,161.938 203.868 C 162.057 203.674,162.101 203.536,162.035 203.561 C 161.968 203.586,161.606 203.687,161.230 203.785 M159.474 211.523 C 159.478 212.383,159.558 212.688,159.651 212.202 C 159.745 211.717,159.741 211.013,159.643 210.640 C 159.546 210.267,159.469 210.664,159.474 211.523 M158.294 231.641 C 158.294 232.393,158.374 232.700,158.472 232.324 C 158.571 231.948,158.571 231.333,158.472 230.957 C 158.374 230.581,158.294 230.889,158.294 231.641 M195.050 234.570 C 195.052 236.074,195.122 236.642,195.207 235.831 C 195.292 235.021,195.290 233.790,195.204 233.097 C 195.118 232.403,195.048 233.066,195.050 234.570 M198.926 335.831 C 199.731 335.916,201.050 335.916,201.855 335.831 C 202.661 335.747,202.002 335.678,200.391 335.678 C 198.779 335.678,198.120 335.747,198.926 335.831 " stroke="none" fill="#8dc5d2" fill-rule="evenodd"></path><path id="path3" d="M204.004 77.613 C 204.380 77.711,204.995 77.711,205.371 77.613 C 205.747 77.515,205.439 77.434,204.688 77.434 C 203.936 77.434,203.628 77.515,204.004 77.613 M114.823 112.012 L 113.477 113.477 114.941 112.130 C 115.747 111.390,116.406 110.731,116.406 110.666 C 116.406 110.367,116.076 110.648,114.823 112.012 M111.698 115.137 L 110.352 116.602 111.816 115.255 C 112.622 114.515,113.281 113.856,113.281 113.791 C 113.281 113.492,112.951 113.773,111.698 115.137 M136.904 144.629 L 134.180 147.461 137.012 144.737 C 139.642 142.207,140.022 141.797,139.736 141.797 C 139.676 141.797,138.402 143.071,136.904 144.629 M289.407 179.590 C 289.381 179.751,289.386 180.028,289.417 180.205 C 289.447 180.382,289.298 180.419,289.084 180.287 C 288.870 180.155,286.592 181.456,284.021 183.178 C 272.258 191.059,272.115 191.128,261.105 194.295 C 249.334 197.681,251.048 196.436,249.823 202.488 C 249.263 205.249,248.209 209.027,247.479 210.883 C 245.787 215.187,243.941 219.471,243.656 219.755 C 243.243 220.168,242.640 216.225,242.159 209.961 C 241.894 206.523,241.626 203.647,241.563 203.569 C 241.499 203.490,239.460 205.248,237.032 207.475 L 232.617 211.523 231.250 225.293 C 230.498 232.867,229.933 239.063,229.995 239.063 C 230.057 239.063,234.012 237.372,238.784 235.307 C 252.913 229.191,255.106 228.284,267.578 223.392 C 282.576 217.511,284.272 216.727,284.757 215.453 C 284.964 214.907,286.013 208.262,287.087 200.687 C 289.972 180.337,290.103 179.297,289.764 179.297 C 289.593 179.297,289.432 179.429,289.407 179.590 M321.575 194.531 C 321.575 195.283,321.655 195.591,321.754 195.215 C 321.852 194.839,321.852 194.224,321.754 193.848 C 321.655 193.472,321.575 193.779,321.575 194.531 M149.302 203.409 L 142.159 203.533 142.271 217.160 C 142.332 224.654,142.254 230.583,142.096 230.335 C 141.910 230.043,141.807 230.125,141.803 230.566 C 141.800 230.942,141.976 231.250,142.195 231.250 C 142.426 231.250,142.494 231.702,142.359 232.324 C 142.169 233.193,142.211 233.287,142.580 232.813 C 142.956 232.330,143.000 232.393,142.829 233.163 L 142.621 234.099 150.267 233.861 C 154.473 233.730,158.008 233.529,158.123 233.413 C 158.239 233.298,158.172 233.204,157.975 233.204 C 157.602 233.205,157.679 227.587,158.066 226.563 C 158.188 226.240,158.257 224.684,158.219 223.105 C 158.181 221.526,158.294 220.323,158.469 220.432 C 158.645 220.542,158.761 219.197,158.726 217.444 C 158.681 215.131,158.747 214.632,158.968 215.625 L 159.272 216.992 159.324 215.332 C 159.357 214.240,159.208 213.670,158.887 213.666 C 158.561 213.662,158.594 213.534,158.984 213.281 C 159.307 213.073,159.377 212.900,159.141 212.897 C 158.884 212.893,158.759 212.301,158.830 211.426 C 158.896 210.620,159.036 208.906,159.142 207.617 C 159.247 206.328,159.346 204.834,159.360 204.297 C 159.382 203.498,159.462 203.427,159.801 203.906 C 160.170 204.427,160.198 204.427,160.058 203.906 C 159.877 203.236,159.703 203.228,149.302 203.409 M159.466 208.984 C 159.466 209.736,159.546 210.044,159.644 209.668 C 159.743 209.292,159.743 208.677,159.644 208.301 C 159.546 207.925,159.466 208.232,159.466 208.984 M215.820 214.682 C 200.729 216.784,197.570 217.188,196.185 217.188 C 195.465 217.188,194.973 217.344,195.091 217.536 C 195.579 218.326,195.659 220.703,195.197 220.709 C 194.901 220.713,194.943 220.868,195.313 221.129 C 195.753 221.441,195.778 221.593,195.410 221.742 C 195.051 221.888,194.941 223.199,194.996 226.693 L 195.070 231.445 195.313 227.930 C 195.526 224.835,195.571 225.232,195.687 231.250 C 195.847 239.556,195.819 239.135,196.252 239.806 C 196.510 240.208,196.468 240.270,196.093 240.038 C 195.711 239.802,195.636 239.937,195.800 240.564 C 195.922 241.028,195.862 241.309,195.667 241.188 C 195.465 241.064,195.313 242.491,195.313 244.508 C 195.313 247.081,195.446 248.045,195.801 248.042 C 196.461 248.035,223.387 241.199,223.586 240.988 C 223.673 240.896,224.209 235.371,224.777 228.711 C 225.345 222.051,225.911 215.854,226.035 214.941 C 226.207 213.678,226.133 213.293,225.728 213.328 C 225.435 213.354,220.977 213.963,215.820 214.682 M158.692 222.461 C 158.697 223.320,158.777 223.626,158.870 223.140 C 158.963 222.654,158.960 221.951,158.862 221.577 C 158.764 221.204,158.688 221.602,158.692 222.461 M158.315 228.711 C 158.318 229.785,158.394 230.178,158.483 229.584 C 158.573 228.991,158.571 228.112,158.478 227.631 C 158.385 227.151,158.312 227.637,158.315 228.711 M316.406 235.807 C 316.406 236.022,316.187 236.208,315.918 236.221 C 315.649 236.234,313.555 236.871,311.263 237.636 C 302.067 240.705,297.775 241.077,276.563 240.638 C 262.435 240.346,255.099 242.425,243.837 249.912 C 240.596 252.067,239.831 252.734,240.602 252.734 C 240.829 252.734,241.016 252.564,241.016 252.356 C 241.016 252.148,241.253 252.069,241.543 252.180 C 241.833 252.291,244.162 252.034,246.719 251.608 C 257.624 249.792,265.961 249.375,277.983 250.045 C 296.138 251.056,305.345 250.488,311.482 247.977 C 313.032 247.343,317.492 236.502,316.578 235.589 C 316.484 235.494,316.406 235.592,316.406 235.807 M196.078 245.508 L 195.799 247.852 195.830 245.013 C 195.846 243.452,195.972 242.397,196.109 242.669 C 196.246 242.941,196.232 244.219,196.078 245.508 M89.502 251.495 C 91.803 258.305,92.807 259.834,95.634 260.838 C 103.600 263.668,114.646 264.249,128.125 262.548 C 148.044 260.034,157.923 261.576,178.711 270.442 C 200.985 279.943,208.992 280.543,234.961 274.659 C 249.757 271.307,257.225 270.506,270.836 270.812 C 281.149 271.044,281.127 271.053,276.065 268.765 C 263.260 262.980,251.115 262.294,230.664 266.201 C 209.115 270.318,201.803 269.580,181.641 261.256 C 159.036 251.923,150.514 250.403,132.520 252.494 C 113.527 254.700,103.744 253.973,92.578 249.528 C 88.009 247.708,88.184 247.596,89.502 251.495 M139.453 275.233 C 134.966 275.755,127.229 277.623,127.530 278.110 C 127.629 278.271,129.512 278.526,131.714 278.678 C 142.929 279.450,149.966 281.592,165.234 288.877 C 192.885 302.072,206.501 304.078,226.433 297.895 C 233.430 295.724,241.406 292.239,241.406 291.352 C 241.406 290.899,240.416 290.959,227.734 292.187 C 208.409 294.058,195.740 291.756,175.586 282.710 C 160.867 276.104,150.464 273.951,139.453 275.233 " stroke="none" fill="#6fbdd1" fill-rule="evenodd"></path><path id="path4" d="M198.741 64.349 C 199.660 64.432,201.066 64.430,201.866 64.346 C 202.666 64.263,201.914 64.195,200.195 64.196 C 198.477 64.198,197.822 64.267,198.741 64.349 M192.676 78.014 C 193.267 78.104,194.233 78.104,194.824 78.014 C 195.415 77.925,194.932 77.851,193.750 77.851 C 192.568 77.851,192.085 77.925,192.676 78.014 M205.962 78.015 C 206.556 78.104,207.435 78.102,207.916 78.009 C 208.396 77.917,207.910 77.843,206.836 77.846 C 205.762 77.849,205.369 77.925,205.962 78.015 M163.086 83.384 C 161.577 84.075,162.279 84.085,164.063 83.398 C 164.814 83.109,165.166 82.866,164.844 82.860 C 164.521 82.853,163.730 83.089,163.086 83.384 M147.266 89.648 C 146.299 90.166,145.684 90.590,145.898 90.590 C 146.113 90.590,147.080 90.166,148.047 89.648 C 149.014 89.131,149.629 88.707,149.414 88.707 C 149.199 88.707,148.232 89.131,147.266 89.648 M251.595 89.211 C 251.994 89.574,255.859 91.399,255.859 91.224 C 255.859 91.004,252.129 89.063,251.706 89.063 C 251.555 89.063,251.506 89.129,251.595 89.211 M142.090 92.214 C 141.284 92.639,140.625 93.075,140.625 93.181 C 140.625 93.288,141.328 93.017,142.188 92.578 C 143.047 92.140,143.750 91.697,143.750 91.594 C 143.750 91.338,143.747 91.339,142.090 92.214 M258.594 92.753 C 258.594 92.861,259.121 93.221,259.766 93.555 C 260.410 93.888,260.938 94.073,260.938 93.965 C 260.938 93.858,260.410 93.497,259.766 93.164 C 259.121 92.831,258.594 92.646,258.594 92.753 M138.965 93.973 C 137.505 94.766,137.593 95.096,139.063 94.336 C 139.707 94.003,140.234 93.647,140.234 93.545 C 140.234 93.293,140.192 93.307,138.965 93.973 M269.531 99.361 C 269.531 99.468,270.059 99.932,270.703 100.391 C 271.348 100.850,271.875 101.137,271.875 101.030 C 271.875 100.922,271.348 100.459,270.703 100.000 C 270.059 99.541,269.531 99.253,269.531 99.361 M128.711 100.620 L 127.539 101.627 128.809 100.787 C 129.507 100.325,130.078 99.871,130.078 99.778 C 130.078 99.486,129.913 99.588,128.711 100.620 M123.828 104.330 L 122.070 105.923 123.926 104.477 C 125.552 103.209,126.034 102.732,125.684 102.735 C 125.630 102.736,124.795 103.453,123.828 104.330 M278.516 106.301 C 281.410 109.181,285.889 113.203,284.180 111.387 C 283.105 110.246,281.172 108.416,279.883 107.320 C 278.594 106.225,277.979 105.766,278.516 106.301 M120.291 107.324 L 118.945 108.789 120.410 107.443 C 121.216 106.703,121.875 106.043,121.875 105.978 C 121.875 105.680,121.544 105.961,120.291 107.324 M113.656 113.574 C 109.549 117.760,104.703 123.011,107.257 120.508 C 109.764 118.051,118.860 108.594,118.715 108.594 C 118.621 108.594,116.344 110.835,113.656 113.574 M288.477 116.016 C 289.752 117.305,290.884 118.359,290.991 118.359 C 291.099 118.359,290.143 117.305,288.867 116.016 C 287.592 114.727,286.460 113.672,286.353 113.672 C 286.245 113.672,287.201 114.727,288.477 116.016 M206.055 119.531 C 206.484 119.716,207.100 119.867,207.422 119.867 C 207.791 119.867,207.719 119.743,207.227 119.531 C 206.797 119.347,206.182 119.196,205.859 119.196 C 205.490 119.196,205.562 119.320,206.055 119.531 M214.648 121.875 C 215.078 122.060,215.693 122.211,216.016 122.211 C 216.385 122.211,216.313 122.087,215.820 121.875 C 215.391 121.690,214.775 121.539,214.453 121.539 C 214.084 121.539,214.156 121.663,214.648 121.875 M181.445 122.865 C 180.469 123.336,180.436 123.390,181.250 123.191 C 182.357 122.921,183.601 122.286,183.008 122.295 C 182.793 122.298,182.090 122.555,181.445 122.865 M102.886 125.879 C 101.870 127.222,100.871 128.540,100.667 128.809 C 100.462 129.077,100.383 129.297,100.491 129.297 C 100.598 129.297,101.679 127.979,102.892 126.367 C 104.104 124.756,105.015 123.438,104.915 123.438 C 104.815 123.438,103.902 124.536,102.886 125.879 M177.930 124.009 C 176.421 124.700,177.123 124.710,178.906 124.023 C 179.658 123.734,180.010 123.491,179.688 123.485 C 179.365 123.478,178.574 123.714,177.930 124.009 M232.227 126.563 C 232.656 126.747,233.271 126.898,233.594 126.898 C 233.963 126.898,233.891 126.774,233.398 126.563 C 232.969 126.378,232.354 126.227,232.031 126.227 C 231.662 126.227,231.734 126.351,232.227 126.563 M238.086 128.125 C 238.516 128.310,239.131 128.461,239.453 128.461 C 239.822 128.461,239.750 128.337,239.258 128.125 C 238.828 127.940,238.213 127.789,237.891 127.789 C 237.521 127.789,237.594 127.913,238.086 128.125 M162.891 129.102 C 162.139 129.391,161.787 129.634,162.109 129.640 C 162.432 129.647,163.223 129.411,163.867 129.116 C 165.376 128.425,164.674 128.415,162.891 129.102 M252.734 132.031 C 254.070 132.459,255.097 132.459,254.102 132.031 C 253.672 131.847,252.969 131.701,252.539 131.707 C 251.911 131.716,251.949 131.780,252.734 132.031 M138.058 142.972 C 135.036 145.978,132.665 148.438,132.790 148.438 C 132.916 148.438,135.475 145.977,138.477 142.969 C 141.479 139.961,143.849 137.502,143.745 137.504 C 143.640 137.506,141.081 139.967,138.058 142.972 M92.383 142.578 C 91.625 144.082,91.094 145.313,91.201 145.313 C 91.309 145.313,92.016 144.082,92.773 142.578 C 93.531 141.074,94.063 139.844,93.955 139.844 C 93.848 139.844,93.140 141.074,92.383 142.578 M285.938 145.898 C 286.603 146.865,287.235 147.656,287.342 147.656 C 287.450 147.656,286.993 146.865,286.328 145.898 C 285.663 144.932,285.031 144.141,284.923 144.141 C 284.816 144.141,285.272 144.932,285.938 145.898 M90.109 147.088 C 89.191 149.013,89.321 149.340,90.280 147.522 C 90.716 146.696,91.003 145.951,90.919 145.866 C 90.834 145.782,90.470 146.332,90.109 147.088 M289.063 150.391 C 289.521 151.035,289.985 151.563,290.092 151.563 C 290.200 151.563,289.912 151.035,289.453 150.391 C 288.994 149.746,288.531 149.219,288.423 149.219 C 288.316 149.219,288.604 149.746,289.063 150.391 M142.364 153.223 L 140.820 154.883 142.480 153.339 C 144.024 151.903,144.320 151.563,144.025 151.563 C 143.961 151.563,143.214 152.310,142.364 153.223 M291.016 153.125 C 291.475 153.770,291.938 154.297,292.045 154.297 C 292.153 154.297,291.865 153.770,291.406 153.125 C 290.947 152.480,290.484 151.953,290.376 151.953 C 290.269 151.953,290.557 152.480,291.016 153.125 M119.141 154.102 C 118.604 154.409,118.340 154.660,118.555 154.660 C 118.770 154.660,119.385 154.409,119.922 154.102 C 120.459 153.795,120.723 153.543,120.508 153.543 C 120.293 153.543,119.678 153.795,119.141 154.102 M292.969 155.859 C 293.428 156.504,293.891 157.031,293.999 157.031 C 294.106 157.031,293.818 156.504,293.359 155.859 C 292.900 155.215,292.437 154.688,292.330 154.688 C 292.222 154.688,292.510 155.215,292.969 155.859 M109.375 158.398 C 108.838 158.705,108.574 158.957,108.789 158.957 C 109.004 158.957,109.619 158.705,110.156 158.398 C 110.693 158.091,110.957 157.840,110.742 157.840 C 110.527 157.840,109.912 158.091,109.375 158.398 M104.980 160.380 C 103.466 161.201,103.637 161.485,105.176 160.703 C 106.648 159.954,106.909 159.760,106.413 159.781 C 106.216 159.790,105.571 160.059,104.980 160.380 M300.502 169.727 C 300.505 170.801,300.581 171.194,300.671 170.600 C 300.761 170.006,300.758 169.127,300.666 168.647 C 300.573 168.167,300.499 168.652,300.502 169.727 M299.700 178.516 C 299.700 179.268,299.780 179.575,299.879 179.199 C 299.977 178.823,299.977 178.208,299.879 177.832 C 299.780 177.456,299.700 177.764,299.700 178.516 M98.563 182.031 C 98.563 183.428,98.633 183.999,98.720 183.301 C 98.807 182.603,98.807 181.460,98.720 180.762 C 98.633 180.063,98.563 180.635,98.563 182.031 M320.403 184.375 C 320.403 185.127,320.484 185.435,320.582 185.059 C 320.680 184.683,320.680 184.067,320.582 183.691 C 320.484 183.315,320.403 183.623,320.403 184.375 M79.388 184.766 C 79.388 185.518,79.468 185.825,79.566 185.449 C 79.664 185.073,79.664 184.458,79.566 184.082 C 79.468 183.706,79.388 184.014,79.388 184.766 M320.802 187.695 C 320.806 188.555,320.886 188.860,320.979 188.374 C 321.073 187.888,321.069 187.185,320.972 186.812 C 320.874 186.438,320.797 186.836,320.802 187.695 M78.997 187.891 C 78.997 188.643,79.077 188.950,79.176 188.574 C 79.274 188.198,79.274 187.583,79.176 187.207 C 79.077 186.831,78.997 187.139,78.997 187.891 M321.215 192.383 C 321.217 193.672,321.290 194.152,321.377 193.450 C 321.464 192.748,321.462 191.693,321.373 191.106 C 321.284 190.519,321.213 191.094,321.215 192.383 M78.633 192.969 C 78.633 194.150,78.706 194.634,78.795 194.043 C 78.885 193.452,78.885 192.485,78.795 191.895 C 78.706 191.304,78.633 191.787,78.633 192.969 M110.938 191.173 C 110.938 192.276,116.375 215.537,117.625 219.777 L 118.445 222.562 122.211 224.338 C 124.282 225.315,129.229 227.689,133.203 229.613 C 142.736 234.230,142.236 234.107,141.951 231.763 C 141.826 230.729,140.936 227.598,139.975 224.805 C 137.478 217.553,134.083 207.116,133.602 205.211 C 133.193 203.589,133.174 203.576,124.897 198.985 C 120.334 196.454,115.327 193.634,113.770 192.719 C 112.212 191.803,110.938 191.107,110.938 191.173 M118.846 196.071 C 122.217 197.961,124.500 199.470,124.352 199.710 C 124.204 199.949,124.285 200.005,124.545 199.844 C 124.791 199.692,126.740 200.500,128.875 201.639 L 132.758 203.711 133.810 207.422 C 134.787 210.871,135.579 213.258,139.811 225.519 C 141.215 229.587,141.828 232.813,141.196 232.813 C 140.383 232.813,134.830 229.899,135.030 229.577 C 135.166 229.356,135.090 229.292,134.861 229.433 C 134.272 229.797,133.157 229.297,133.461 228.805 C 133.611 228.562,133.526 228.511,133.252 228.681 C 132.991 228.842,129.737 227.480,125.805 225.565 L 118.822 222.164 117.599 217.979 C 114.880 208.678,111.356 191.726,112.261 192.311 C 112.715 192.604,115.678 194.296,118.846 196.071 M159.673 193.245 C 160.158 193.338,160.862 193.335,161.235 193.237 C 161.608 193.139,161.211 193.063,160.352 193.067 C 159.492 193.072,159.187 193.152,159.673 193.245 M64.986 199.414 C 64.987 201.563,65.053 202.392,65.132 201.256 C 65.211 200.121,65.211 198.363,65.130 197.350 C 65.050 196.337,64.985 197.266,64.986 199.414 M297.356 197.656 C 297.356 198.408,297.437 198.716,297.535 198.340 C 297.633 197.964,297.633 197.349,297.535 196.973 C 297.437 196.597,297.356 196.904,297.356 197.656 M296.966 200.781 C 296.966 201.533,297.046 201.841,297.144 201.465 C 297.243 201.089,297.243 200.474,297.144 200.098 C 297.046 199.722,296.966 200.029,296.966 200.781 M160.215 204.590 C 160.262 205.768,160.305 205.845,160.436 204.980 C 160.526 204.390,160.719 203.903,160.866 203.899 C 161.631 203.877,170.613 208.018,170.265 208.232 C 170.041 208.371,170.355 208.488,170.963 208.491 C 172.836 208.501,193.781 217.203,194.116 218.110 C 194.399 218.873,194.408 218.872,194.619 218.066 C 194.815 217.317,194.077 216.947,186.186 213.839 C 181.430 211.966,173.693 208.789,168.991 206.779 C 164.290 204.769,160.379 203.125,160.300 203.125 C 160.221 203.125,160.183 203.784,160.215 204.590 M90.820 204.297 L 78.320 204.509 90.918 204.598 C 99.116 204.656,103.516 204.551,103.516 204.297 C 103.516 204.082,103.472 203.946,103.418 203.996 C 103.364 204.045,97.695 204.180,90.820 204.297 M159.234 219.043 C 158.856 226.079,158.478 232.188,158.393 232.617 C 158.217 233.517,160.713 234.603,179.492 241.802 C 185.508 244.107,191.528 246.444,192.871 246.993 L 195.313 247.992 195.313 244.113 C 195.313 241.980,195.181 240.234,195.020 240.233 C 194.858 240.233,194.783 241.817,194.852 243.753 L 194.978 247.273 192.508 246.341 C 191.150 245.829,186.963 244.220,183.203 242.766 C 179.443 241.312,174.873 239.545,173.047 238.840 C 171.221 238.135,167.354 236.614,164.453 235.461 L 159.180 233.364 159.180 229.866 C 159.180 227.941,159.289 224.697,159.424 222.656 C 159.832 216.450,160.236 206.250,160.074 206.250 C 159.991 206.250,159.613 212.007,159.234 219.043 M194.502 225.195 C 194.266 229.082,194.516 239.844,194.843 239.844 C 195.097 239.844,195.046 225.635,194.785 223.438 C 194.721 222.900,194.594 223.691,194.502 225.195 M105.078 296.680 C 106.245 297.861,107.288 298.828,107.395 298.828 C 107.503 298.828,106.636 297.861,105.469 296.680 C 104.302 295.498,103.259 294.531,103.152 294.531 C 103.044 294.531,103.911 295.498,105.078 296.680 M195.801 335.816 C 196.177 335.914,196.792 335.914,197.168 335.816 C 197.544 335.718,197.236 335.638,196.484 335.638 C 195.732 335.638,195.425 335.718,195.801 335.816 M203.613 335.816 C 203.989 335.914,204.604 335.914,204.980 335.816 C 205.356 335.718,205.049 335.638,204.297 335.638 C 203.545 335.638,203.237 335.718,203.613 335.816 " stroke="none" fill="#bde0e9" fill-rule="evenodd"></path><path id="path5" d="M294.727 103.516 C 295.566 104.375,296.340 105.078,296.448 105.078 C 296.555 105.078,295.956 104.375,295.117 103.516 C 294.278 102.656,293.504 101.953,293.396 101.953 C 293.289 101.953,293.887 102.656,294.727 103.516 M334.856 195.313 C 334.856 196.064,334.937 196.372,335.035 195.996 C 335.133 195.620,335.133 195.005,335.035 194.629 C 334.937 194.253,334.856 194.561,334.856 195.313 " stroke="none" fill="#8c9c9c" fill-rule="evenodd"></path></g></svg>